 <svg  version="1.0" xmlns="http://www.w3.org/2000/svg"  width="300.000000pt" height="300.000000pt" viewBox="0 0 300.000000 300.000000"  preserveAspectRatio="xMidYMid meet">  <g transform="translate(0.000000,300.000000) scale(0.050000,-0.050000)" fill="#f8f6e9" stroke="none"> <path d="M1900 5306 c0 -283 221 -649 467 -774 166 -84 473 -149 473 -101 0 62 -311 409 -488 545 -138 106 -122 130 35 53 322 -158 571 -489 545 -726 -6 -62 -17 -212 -24 -333 -15 -252 -28 -276 -169 -318 -132 -40 -199 -78 -278 -160 -40 -42 -88 -72 -116 -72 -129 0 -246 -100 -289 -248 -13 -45 -44 -107 -69 -138 -216 -264 -10 -564 400 -583 113 -5 164 -15 170 -34 4 -15 32 -52 60 -84 l53 -56 -56 -49 c-47 -40 -77 -48 -190 -48 -171 0 -270 -28 -348 -98 -100 -89 -29 -143 80 -61 31 22 91 46 135 53 l79 13 -92 -103 c-135 -150 -176 -328 -82 -359 26 -9 31 1 64 131 29 113 135 228 298 323 73 42 149 96 170 119 66 73 87 54 71 -65 -21 -152 -58 -212 -227 -363 -144 -130 -212 -235 -212 -329 0 -93 87 -63 107 37 6 32 34 83 61 115 l51 57 0 -103 c1 -124 55 -300 97 -317 59 -22 71 24 37 145 -53 189 -45 323 25 406 32 38 62 65 67 59 142 -167 192 -401 137 -638 -58 -245 -32 -398 58 -342 18 11 22 40 14 90 -8 46 4 141 29 246 22 95 37 202 33 238 -10 80 7 83 73 11 59 -63 74 -130 67 -285 -8 -154 63 -165 91 -15 36 196 9 268 -166 435 -204 195 -227 243 -229 467 -2 216 36 270 114 163 24 -33 73 -93 109 -132 59 -66 64 -81 53 -161 -15 -109 19 -196 124 -318 43 -50 92 -111 108 -136 21 -31 41 -41 65 -32 53 20 42 73 -32 160 -223 260 -243 415 -42 320 131 -61 209 -148 239 -265 18 -72 34 -96 62 -96 90 0 45 191 -77 323 -45 48 -68 87 -53 87 64 0 175 -43 208 -80 67 -75 172 -25 109 52 -63 75 -185 115 -339 112 -205 -3 -282 21 -368 116 -40 44 -72 82 -72 85 0 3 119 2 265 -1 305 -8 369 16 445 166 22 43 61 96 86 116 157 130 160 510 5 594 -20 10 -41 45 -48 78 -15 77 -116 190 -198 223 -36 15 -99 55 -140 90 -43 36 -128 78 -200 98 -69 20 -154 44 -190 55 -104 31 -125 80 -125 295 1 427 151 689 491 852 205 99 253 83 84 -28 -133 -86 -415 -362 -415 -406 0 -41 263 -8 386 49 247 113 494 472 494 718 0 32 -239 15 -373 -26 -268 -82 -459 -238 -594 -483 -78 -141 -78 -141 -130 0 -149 411 -476 655 -958 715 l-105 14 0 -58z m1000 -1777 c0 -3 -27 -50 -61 -104 -71 -114 -89 -256 -37 -290 45 -29 211 -1 227 38 18 49 -22 81 -89 71 -72 -10 -75 8 -19 118 55 107 205 204 289 187 156 -33 297 -129 189 -129 -133 0 -247 -119 -235 -246 9 -99 96 -105 96 -7 0 135 203 212 377 142 94 -38 123 -77 123 -168 0 -47 12 -66 49 -81 133 -50 173 -347 60 -441 -45 -37 -93 31 -81 117 13 90 -3 124 -60 124 -37 0 -48 -11 -48 -46 0 -81 -45 -118 -157 -129 -115 -11 -140 -31 -100 -78 20 -25 53 -30 152 -22 184 15 240 -59 137 -179 l-49 -56 -363 4 c-414 4 -389 -4 -361 103 26 96 35 103 157 120 142 20 152 103 13 103 -169 0 -239 -69 -273 -270 -16 -97 -165 -18 -187 99 -38 200 113 291 511 309 341 16 462 89 437 265 -9 57 -72 74 -89 23 -56 -173 -83 -186 -386 -187 -150 0 -242 -11 -315 -36 l-102 -35 -45 46 c-24 25 -66 46 -92 46 -69 0 -63 -69 11 -112 l59 -35 -39 -55 c-22 -30 -45 -84 -52 -119 l-13 -65 -169 12 c-301 22 -465 228 -313 396 82 91 201 25 181 -99 -16 -97 31 -139 80 -72 73 100 5 269 -121 300 -129 33 25 229 179 229 50 0 62 -25 74 -150 4 -46 16 -62 53 -67 48 -7 48 -6 36 135 l-12 141 73 60 c101 83 305 143 305 90z"/> </g> </svg> 