<?xml version="1.0" standalone="no"?>
<!DOCTYPE svg PUBLIC "-//W3C//DTD SVG 20010904//EN"
 "http://www.w3.org/TR/2001/REC-SVG-20010904/DTD/svg10.dtd">
<svg version="1.0" xmlns="http://www.w3.org/2000/svg"
 width="300.000000pt" height="300.000000pt" viewBox="0 0 300.000000 300.000000"
 preserveAspectRatio="xMidYMid meet">
<metadata>
Created by potrace 1.10, written by Peter Selinger 2001-2011
</metadata>
<g transform="translate(0.000000,300.000000) scale(0.100000,-0.100000)"
fill="#000000" stroke="none">
<path d="M765 2764 c37 -195 151 -369 314 -478 92 -61 158 -91 267 -119 83
-21 89 -24 95 -52 8 -39 9 -241 0 -325 -5 -59 -9 -66 -36 -79 -16 -9 -46 -25
-66 -37 -27 -17 -46 -21 -80 -17 -90 10 -181 -39 -215 -116 -14 -32 -26 -43
-63 -57 -61 -23 -134 -93 -162 -157 -33 -73 -34 -213 -2 -272 66 -125 203
-169 345 -111 54 22 58 23 73 6 9 -9 34 -25 55 -35 47 -21 47 -40 -4 -93 -44
-47 -77 -62 -138 -62 -54 0 -126 -26 -161 -58 -45 -41 -57 -102 -22 -116 22
-8 41 2 53 30 15 32 69 64 110 64 17 0 32 -2 32 -5 0 -3 -21 -42 -47 -86 -37
-64 -48 -93 -51 -138 -3 -45 0 -60 13 -71 26 -22 49 0 57 53 3 25 17 65 29 87
l24 42 7 -30 c10 -37 29 -54 48 -42 9 6 14 31 14 83 1 74 2 77 52 149 29 40
56 71 60 70 11 -4 33 -96 33 -137 1 -16 -14 -55 -31 -85 -74 -129 -88 -163
-88 -209 0 -59 27 -115 59 -119 38 -6 45 11 26 67 -20 62 -15 91 32 168 20 32
43 77 52 100 l17 42 27 -41 c15 -23 27 -53 27 -65 0 -13 -15 -79 -34 -146 -54
-191 -56 -277 -7 -277 27 0 32 10 42 93 5 39 21 113 36 164 31 108 40 103 50
-29 5 -65 9 -79 25 -84 11 -3 25 -1 30 4 17 17 21 107 8 175 -18 93 -41 137
-115 218 -66 72 -125 173 -125 215 0 20 17 44 31 44 4 0 23 -28 41 -62 19 -38
60 -89 100 -128 69 -66 107 -132 108 -183 0 -39 17 -67 41 -67 24 0 42 43 34
82 -4 15 -3 28 2 28 16 0 62 -54 77 -92 17 -40 32 -50 59 -36 22 11 22 50 -2
96 -22 42 -55 75 -126 123 l-50 34 43 3 c61 5 133 -22 187 -70 37 -33 51 -39
64 -31 46 29 -2 104 -91 143 -42 18 -81 25 -183 31 -71 4 -131 8 -133 8 -7 2
-62 66 -62 73 0 12 134 1 175 -15 115 -46 249 20 307 151 11 24 37 61 58 82
44 44 63 97 62 177 0 73 -32 136 -113 223 -38 41 -88 94 -110 118 -50 55 -115
84 -177 81 -35 -1 -64 6 -112 30 -36 17 -77 31 -92 31 -15 0 -29 3 -31 8 -4 7
3 100 24 310 10 102 13 113 33 117 141 29 182 42 251 76 150 74 271 193 345
340 41 80 70 176 70 229 l0 32 -57 -7 c-91 -11 -220 -52 -307 -98 -174 -90
-305 -272 -366 -510 -16 -65 -19 -69 -25 -42 -41 179 -145 372 -251 465 -110
96 -278 166 -446 186 l-56 7 13 -69z m427 -252 c87 -69 135 -125 173 -202 15
-30 25 -53 23 -50 -3 3 -27 32 -54 65 -69 86 -171 180 -281 259 -29 21 -53 40
-53 42 0 13 128 -63 192 -114z m838 114 c0 -2 -17 -15 -37 -27 -93 -58 -235
-182 -294 -258 -34 -45 -63 -81 -65 -81 -10 0 85 153 114 183 55 58 150 126
217 158 64 31 65 31 65 25z m-462 -986 c24 -6 61 -22 83 -35 33 -22 47 -25 88
-19 61 8 111 -16 170 -83 24 -26 71 -78 106 -114 53 -56 65 -75 74 -120 19
-92 -22 -189 -80 -189 -13 0 -20 14 -29 52 -16 78 -56 112 -80 69 -7 -14 -6
-29 5 -55 21 -49 19 -103 -5 -136 -25 -35 -81 -62 -123 -59 -18 1 -58 -6 -90
-15 -35 -11 -69 -15 -88 -11 -28 6 -29 8 -15 24 27 29 45 84 35 103 -15 28
-37 21 -63 -21 -44 -69 -151 -92 -236 -48 -61 31 -90 87 -90 177 0 93 17 113
113 135 85 19 129 44 156 89 26 42 28 101 4 111 -19 7 -53 -26 -53 -50 0 -28
-60 -64 -136 -80 -92 -21 -117 -41 -148 -120 -17 -41 -33 -64 -51 -73 -30 -15
-75 -8 -75 11 0 27 -26 50 -48 43 -46 -15 -35 -82 20 -117 33 -20 65 -21 141
-3 26 6 27 5 27 -34 0 -40 -1 -41 -51 -57 -138 -46 -248 16 -257 145 -7 89 13
146 70 202 57 58 78 62 78 15 0 -61 49 -99 80 -62 10 12 10 21 1 41 -16 37
-13 93 8 141 21 46 51 69 99 79 l32 6 -17 -33 c-9 -19 -17 -54 -18 -79 0 -38
3 -45 21 -48 17 -2 23 7 38 53 23 74 73 129 134 149 41 13 61 17 117 24 6 1
29 -3 53 -8z"/>
<path d="M1710 1425 c-19 -23 -7 -49 28 -61 48 -15 58 -28 44 -59 -17 -38 -73
-56 -193 -65 -123 -10 -179 -32 -205 -81 -18 -36 -11 -79 13 -79 9 0 33 18 53
40 37 40 37 40 113 40 186 0 297 59 299 158 0 49 -15 78 -55 102 -38 24 -80
26 -97 5z"/>
</g>
</svg>
